<?xml version="1.0" standalone="no"?>
<!DOCTYPE svg PUBLIC "-//W3C//DTD SVG 20010904//EN"
 "http://www.w3.org/TR/2001/REC-SVG-20010904/DTD/svg10.dtd">
<svg version="1.0" xmlns="http://www.w3.org/2000/svg"
 width="700.000000pt" height="700.000000pt" viewBox="0 0 700.000000 700.000000"
 preserveAspectRatio="xMidYMid meet">
<metadata>
Created by potrace 1.14, written by Peter Selinger 2001-2017
</metadata>
<g transform="translate(0.000000,700.000000) scale(0.100000,-0.100000)"
fill="#000000" stroke="none">
<path d="M1618 5225 c-2 -1 -41 -5 -88 -9 -113 -8 -258 -31 -320 -51 -10 -3
-27 -7 -37 -9 -48 -10 -188 -62 -282 -107 -344 -163 -585 -429 -707 -783 -13
-38 -22 -72 -19 -74 3 -3 26 -13 52 -22 156 -56 583 -213 611 -225 50 -23 57
-19 76 43 62 195 191 339 386 429 136 63 220 78 425 78 243 -1 378 -46 494
-165 112 -115 133 -181 133 -412 1 -93 -1 -170 -3 -172 -2 -2 -44 -7 -93 -11
-49 -4 -96 -8 -105 -10 -9 -1 -47 -6 -86 -10 -38 -3 -86 -8 -105 -10 -48 -6
-314 -34 -370 -40 -25 -2 -65 -7 -90 -9 -25 -3 -67 -8 -95 -11 -73 -7 -127
-14 -150 -19 -11 -2 -40 -7 -65 -11 -59 -10 -59 -10 -176 -39 -282 -71 -509
-192 -681 -363 -139 -138 -224 -287 -274 -479 -20 -77 -23 -114 -23 -264 0
-159 2 -184 27 -272 55 -201 141 -339 294 -470 190 -163 444 -258 758 -283 69
-6 295 -6 340 0 17 2 56 6 88 9 262 27 489 136 677 325 47 47 96 99 108 114
13 16 25 27 27 25 1 -1 5 -25 9 -53 3 -27 19 -126 34 -220 l28 -170 385 0 384
0 0 1275 c-1 701 -4 1308 -8 1347 -41 430 -279 789 -642 970 -109 55 -291 112
-405 128 -25 3 -52 8 -60 10 -49 12 -441 29 -452 20z m723 -2143 c6 -121 -14
-278 -48 -386 -91 -289 -282 -471 -573 -546 -127 -33 -353 -46 -459 -27 -110
21 -216 78 -273 148 -64 79 -88 139 -93 237 -13 216 144 388 415 457 65 16
134 27 258 41 29 3 63 7 75 10 12 2 51 7 87 9 36 3 72 8 80 10 8 2 42 7 75 11
33 3 68 8 77 9 9 2 48 7 85 11 37 3 102 11 143 18 124 18 150 18 151 -2z"/>
<path d="M5085 5213 c-597 -67 -1076 -390 -1353 -913 -121 -228 -191 -476
-218 -777 -11 -131 -6 -437 10 -519 2 -12 7 -45 11 -75 18 -151 89 -385 165
-544 198 -411 558 -727 990 -869 352 -115 804 -122 1170 -19 432 121 803 382
1024 721 48 73 108 183 103 188 -4 4 -464 166 -677 237 l-64 22 -57 -85 c-129
-192 -304 -314 -540 -375 -83 -22 -132 -28 -244 -30 -192 -5 -318 18 -452 80
-176 82 -313 214 -405 390 -106 204 -148 414 -143 715 3 134 9 196 30 320 22
126 81 274 153 385 127 196 308 328 527 386 112 29 326 33 450 8 272 -55 520
-225 621 -425 15 -30 30 -54 34 -54 8 0 696 227 732 241 l27 11 -47 91 c-42
82 -116 204 -132 217 -3 3 -13 15 -21 27 -36 52 -140 161 -214 223 -282 237
-622 381 -1005 426 -103 12 -355 10 -475 -3z"/>
</g>
</svg>
